# xmcd
# 
# Track frame offsets:
#     150
#     28673
#     44220
#     64938
#     85773
#     105778
#     127950
#     148470
# 
# Disc length: 2333
# 
# Revision: 24
# Processed by: cddbd v1.5.2PL0 Copyright (c) Steve Scherf et al.
# Submitted via: BonkEnc v1.0.15
# 
DISCID=6f091b08
DTITLE=Death - Leprosy
DYEAR=1988
DGENRE=Metal
TTITLE0=Leprosy
TTITLE1=Born Dead
TTITLE2=Forgotten Past
TTITLE3=Left To Die
TTITLE4=Pull The Plug
TTITLE5=Open Casket
TTITLE6=Primitive Ways
TTITLE7=Choke On It
EXTD=Death Metal
EXTT0=Chuck Schuldiner
EXTT1=Schuldiner - Rozz
EXTT2=Schuldiner - Rozz
EXTT3=Schuldiner - Rozz
EXTT4=Chuck Schuldiner
EXTT5=Schuldiner - Rozz
EXTT6=Rozz - Schuldiner
EXTT7=Schuldiner - Rozz
PLAYORDER=
